<svg xmlns="http://www.w3.org/2000/svg" xmlns:xlink="http://www.w3.org/1999/xlink" width="800" zoomAndPan="magnify" viewBox="0 0 600 449.999984" height="600" preserveAspectRatio="xMidYMid meet" version="1.0"><defs><clipPath id="871e11deca"><path d="M 243.765625 174 L 356.265625 174 L 356.265625 258 L 243.765625 258 Z M 243.765625 174 " clip-rule="nonzero"/></clipPath><clipPath id="cc2b3e139c"><path d="M 273 255 L 327 255 L 327 280.609375 L 273 280.609375 Z M 273 255 " clip-rule="nonzero"/></clipPath><clipPath id="7f1a9e5003"><path d="M 260 169.609375 L 340 169.609375 L 340 235 L 260 235 Z M 260 169.609375 " clip-rule="nonzero"/></clipPath></defs><g clip-path="url(#871e11deca)"><path fill="#14b8a6" d="M 350.617188 257.628906 L 249.417969 257.628906 C 246.316406 257.628906 243.796875 255.105469 243.796875 252 L 243.796875 180.207031 C 243.796875 177.105469 246.316406 174.578125 249.417969 174.578125 L 261.777344 174.578125 C 262.492188 174.578125 263.066406 175.15625 263.066406 175.867188 C 263.066406 176.582031 262.492188 177.15625 261.777344 177.15625 L 249.417969 177.15625 C 247.738281 177.15625 246.371094 178.523438 246.371094 180.207031 L 246.371094 251.996094 C 246.371094 253.679688 247.734375 255.046875 249.414062 255.046875 L 350.617188 255.046875 C 352.296875 255.046875 353.660156 253.679688 353.660156 251.996094 L 353.660156 180.207031 C 353.660156 178.523438 352.296875 177.15625 350.617188 177.15625 L 338.253906 177.15625 C 337.542969 177.15625 336.96875 176.582031 336.96875 175.867188 C 336.96875 175.15625 337.542969 174.578125 338.253906 174.578125 L 350.617188 174.578125 C 353.714844 174.578125 356.238281 177.101562 356.238281 180.207031 L 356.238281 251.996094 C 356.238281 255.105469 353.714844 257.628906 350.617188 257.628906 Z M 350.617188 257.628906 " fill-opacity="1" fill-rule="evenodd"/></g><path fill="#14b8a6" d="M 347.390625 250.054688 L 252.640625 250.054688 C 251.929688 250.054688 251.355469 249.480469 251.355469 248.765625 L 251.355469 183.441406 C 251.355469 182.730469 251.929688 182.152344 252.640625 182.152344 L 261.773438 182.152344 C 262.484375 182.152344 263.058594 182.730469 263.058594 183.441406 C 263.058594 184.15625 262.484375 184.730469 261.773438 184.730469 L 253.929688 184.730469 L 253.929688 247.476562 L 346.101562 247.476562 L 346.101562 184.730469 L 338.257812 184.730469 C 337.546875 184.730469 336.972656 184.15625 336.972656 183.441406 C 336.972656 182.730469 337.546875 182.152344 338.257812 182.152344 L 347.390625 182.152344 C 348.105469 182.152344 348.675781 182.730469 348.675781 183.441406 L 348.675781 248.765625 C 348.675781 249.476562 348.101562 250.054688 347.390625 250.054688 Z M 347.390625 250.054688 " fill-opacity="1" fill-rule="evenodd"/><g clip-path="url(#cc2b3e139c)"><path fill="#14b8a6" d="M 324.9375 280.609375 L 275.09375 280.609375 C 274.378906 280.609375 273.804688 280.039062 273.804688 279.320312 L 273.804688 275.269531 C 273.804688 272.324219 276.195312 269.929688 279.136719 269.929688 L 283.402344 269.929688 C 281.414062 263.867188 287.152344 255.945312 287.421875 255.578125 C 287.847656 255.003906 288.652344 254.882812 289.226562 255.304688 C 289.796875 255.726562 289.917969 256.535156 289.496094 257.105469 C 287.722656 259.519531 283.746094 266.625 286.53125 270.460938 C 286.8125 270.855469 286.855469 271.375 286.632812 271.808594 C 286.414062 272.238281 285.972656 272.511719 285.484375 272.511719 L 279.136719 272.511719 C 277.617188 272.511719 276.378906 273.75 276.378906 275.269531 L 276.378906 278.03125 L 323.652344 278.03125 L 323.652344 275.269531 C 323.652344 273.75 322.414062 272.511719 320.894531 272.511719 L 314.542969 272.511719 C 314.058594 272.511719 313.613281 272.238281 313.394531 271.808594 C 313.171875 271.375 313.214844 270.855469 313.496094 270.460938 C 316.292969 266.613281 312.304688 259.515625 310.53125 257.105469 C 310.109375 256.535156 310.230469 255.726562 310.804688 255.304688 C 311.375 254.882812 312.179688 255.003906 312.605469 255.578125 C 312.875 255.949219 318.617188 263.867188 316.625 269.929688 L 320.894531 269.929688 C 323.835938 269.929688 326.226562 272.324219 326.226562 275.269531 L 326.226562 279.320312 C 326.226562 280.035156 325.648438 280.609375 324.9375 280.609375 Z M 324.9375 280.609375 " fill-opacity="1" fill-rule="evenodd"/></g><path fill="#14b8a6" d="M 300.015625 264.65625 C 298.265625 264.65625 296.84375 266.082031 296.84375 267.828125 C 296.84375 269.582031 298.269531 271.003906 300.015625 271.003906 C 301.761719 271.003906 303.183594 269.578125 303.183594 267.828125 C 303.183594 266.078125 301.761719 264.65625 300.015625 264.65625 Z M 300.015625 273.582031 C 296.847656 273.582031 294.269531 271 294.269531 267.828125 C 294.269531 264.65625 296.847656 262.078125 300.015625 262.078125 C 303.183594 262.078125 305.761719 264.65625 305.761719 267.828125 C 305.761719 271.003906 303.183594 273.582031 300.015625 273.582031 Z M 300.015625 273.582031 " fill-opacity="1" fill-rule="evenodd"/><g clip-path="url(#7f1a9e5003)"><path fill="#14b8a6" d="M 266.734375 172.191406 C 264.710938 172.191406 263.0625 173.839844 263.0625 175.867188 L 263.0625 228.691406 C 263.0625 230.71875 264.710938 232.367188 266.734375 232.367188 L 333.296875 232.367188 C 335.320312 232.367188 336.96875 230.71875 336.96875 228.691406 L 336.96875 175.867188 C 336.96875 173.839844 335.320312 172.191406 333.296875 172.191406 Z M 333.296875 234.945312 L 266.734375 234.945312 C 263.289062 234.945312 260.488281 232.136719 260.488281 228.6875 L 260.488281 175.867188 C 260.488281 172.417969 263.289062 169.609375 266.734375 169.609375 L 333.296875 169.609375 C 336.742188 169.609375 339.542969 172.417969 339.542969 175.867188 L 339.542969 228.6875 C 339.542969 232.136719 336.742188 234.945312 333.296875 234.945312 Z M 333.296875 234.945312 " fill-opacity="1" fill-rule="evenodd"/></g><path fill="#14b8a6" d="M 338.253906 187.394531 L 261.773438 187.394531 C 261.058594 187.394531 260.484375 186.820312 260.484375 186.105469 C 260.484375 185.394531 261.058594 184.820312 261.773438 184.820312 L 338.253906 184.820312 C 338.96875 184.820312 339.542969 185.394531 339.542969 186.105469 C 339.542969 186.820312 338.96875 187.394531 338.253906 187.394531 Z M 338.253906 187.394531 " fill-opacity="1" fill-rule="evenodd"/><path fill="#14b8a6" d="M 269.699219 179.949219 L 273.988281 179.949219 L 272.964844 177.058594 L 270.71875 177.058594 C 270.71875 177.058594 269.699219 179.949219 269.699219 179.949219 Z M 275.8125 182.527344 L 267.875 182.527344 C 267.460938 182.527344 267.0625 182.324219 266.824219 181.980469 C 266.585938 181.636719 266.523438 181.203125 266.664062 180.808594 L 268.597656 175.339844 C 268.78125 174.824219 269.265625 174.476562 269.8125 174.476562 L 273.875 174.476562 C 274.421875 174.476562 274.910156 174.820312 275.089844 175.339844 L 277.027344 180.808594 C 277.167969 181.203125 277.105469 181.640625 276.867188 181.980469 C 276.621094 182.324219 276.226562 182.527344 275.8125 182.527344 Z M 275.8125 182.527344 " fill-opacity="1" fill-rule="evenodd"/><path fill="#14b8a6" d="M 282.695312 179.949219 L 286.984375 179.949219 L 285.960938 177.058594 L 283.714844 177.058594 Z M 288.808594 182.527344 L 280.871094 182.527344 C 280.457031 182.527344 280.0625 182.324219 279.820312 181.980469 C 279.578125 181.636719 279.519531 181.203125 279.660156 180.808594 L 281.59375 175.339844 C 281.777344 174.824219 282.261719 174.476562 282.808594 174.476562 L 286.875 174.476562 C 287.421875 174.476562 287.90625 174.820312 288.085938 175.339844 L 290.019531 180.808594 C 290.160156 181.203125 290.097656 181.640625 289.859375 181.980469 C 289.617188 182.324219 289.226562 182.527344 288.808594 182.527344 Z M 288.808594 182.527344 " fill-opacity="1" fill-rule="evenodd"/><path fill="#14b8a6" d="M 295.695312 179.949219 L 299.984375 179.949219 L 298.960938 177.058594 L 296.714844 177.058594 Z M 301.804688 182.527344 L 293.871094 182.527344 C 293.453125 182.527344 293.058594 182.324219 292.820312 181.980469 C 292.574219 181.636719 292.519531 181.203125 292.65625 180.808594 L 294.589844 175.339844 C 294.777344 174.824219 295.257812 174.476562 295.804688 174.476562 L 299.871094 174.476562 C 300.417969 174.476562 300.902344 174.820312 301.082031 175.339844 L 303.019531 180.808594 C 303.160156 181.203125 303.097656 181.640625 302.859375 181.980469 C 302.617188 182.324219 302.222656 182.527344 301.804688 182.527344 Z M 301.804688 182.527344 " fill-opacity="1" fill-rule="evenodd"/><path fill="#14b8a6" d="M 308.691406 179.949219 L 312.984375 179.949219 L 311.957031 177.058594 L 309.714844 177.058594 Z M 314.804688 182.527344 L 306.871094 182.527344 C 306.453125 182.527344 306.058594 182.324219 305.820312 181.980469 C 305.574219 181.636719 305.519531 181.203125 305.65625 180.808594 L 307.589844 175.339844 C 307.777344 174.824219 308.257812 174.476562 308.804688 174.476562 L 312.871094 174.476562 C 313.417969 174.476562 313.902344 174.820312 314.082031 175.339844 L 316.019531 180.808594 C 316.160156 181.203125 316.097656 181.640625 315.859375 181.980469 C 315.613281 182.324219 315.222656 182.527344 314.804688 182.527344 Z M 314.804688 182.527344 " fill-opacity="1" fill-rule="evenodd"/><path fill="#14b8a6" d="M 315.054688 209.425781 C 315.5 209.425781 315.9375 209.660156 316.171875 210.070312 L 320.914062 218.292969 L 323.996094 216.511719 L 319.253906 208.289062 C 319.082031 207.992188 319.039062 207.640625 319.128906 207.308594 C 319.214844 206.980469 319.433594 206.699219 319.726562 206.523438 L 320.601562 206.019531 L 313.539062 201.9375 L 313.539062 210.101562 L 314.417969 209.597656 C 314.613281 209.480469 314.835938 209.425781 315.054688 209.425781 Z M 320.441406 221.34375 C 320 221.34375 319.5625 221.117188 319.324219 220.699219 L 314.585938 212.472656 L 312.894531 213.453125 C 312.496094 213.683594 312.007812 213.683594 311.609375 213.453125 C 311.210938 213.222656 310.964844 212.796875 310.964844 212.335938 L 310.964844 199.703125 C 310.964844 199.242188 311.210938 198.816406 311.609375 198.582031 C 312.007812 198.355469 312.496094 198.355469 312.894531 198.582031 L 323.816406 204.898438 C 324.214844 205.128906 324.460938 205.554688 324.460938 206.015625 C 324.460938 206.480469 324.214844 206.902344 323.816406 207.132812 L 322.128906 208.113281 L 326.867188 216.335938 C 327.039062 216.632812 327.085938 216.980469 326.996094 217.316406 C 326.910156 217.644531 326.691406 217.925781 326.398438 218.097656 L 321.085938 221.167969 C 320.878906 221.289062 320.660156 221.34375 320.441406 221.34375 Z M 320.441406 221.34375 " fill-opacity="1" fill-rule="evenodd"/><path fill="#14b8a6" d="M 291.535156 205.859375 C 291.015625 205.859375 290.523438 205.539062 290.332031 205.027344 L 286.046875 193.777344 C 285.789062 193.109375 286.125 192.363281 286.789062 192.109375 C 287.453125 191.855469 288.195312 192.1875 288.453125 192.851562 L 292.738281 204.105469 C 292.988281 204.769531 292.65625 205.519531 291.992188 205.769531 C 291.839844 205.828125 291.6875 205.859375 291.535156 205.859375 Z M 291.535156 205.859375 " fill-opacity="1" fill-rule="evenodd"/><path fill="#14b8a6" d="M 282.1875 205.859375 C 281.925781 205.859375 281.664062 205.78125 281.4375 205.621094 L 273.535156 199.992188 C 273.195312 199.75 272.992188 199.363281 272.992188 198.941406 C 272.992188 198.527344 273.195312 198.128906 273.535156 197.886719 L 281.4375 192.257812 C 282.019531 191.847656 282.824219 191.984375 283.238281 192.5625 C 283.652344 193.148438 283.511719 193.949219 282.933594 194.363281 L 276.507812 198.9375 L 282.933594 203.515625 C 283.511719 203.925781 283.648438 204.730469 283.238281 205.3125 C 282.984375 205.671875 282.585938 205.859375 282.1875 205.859375 Z M 282.1875 205.859375 " fill-opacity="1" fill-rule="evenodd"/><path fill="#14b8a6" d="M 296.59375 205.859375 C 296.191406 205.859375 295.792969 205.671875 295.542969 205.316406 C 295.132812 204.734375 295.265625 203.929688 295.847656 203.519531 L 302.273438 198.941406 L 295.847656 194.363281 C 295.265625 193.949219 295.132812 193.148438 295.542969 192.5625 C 295.953125 191.984375 296.757812 191.847656 297.335938 192.257812 L 305.242188 197.886719 C 305.585938 198.132812 305.785156 198.523438 305.785156 198.941406 C 305.785156 199.359375 305.585938 199.75 305.242188 199.992188 L 297.335938 205.621094 C 297.109375 205.78125 296.851562 205.859375 296.59375 205.859375 Z M 296.59375 205.859375 " fill-opacity="1" fill-rule="evenodd"/><path fill="#14b8a6" d="M 301.574219 213.152344 L 277.203125 213.152344 C 276.488281 213.152344 275.914062 212.574219 275.914062 211.863281 C 275.914062 211.148438 276.488281 210.574219 277.203125 210.574219 L 301.574219 210.574219 C 302.285156 210.574219 302.863281 211.148438 302.863281 211.863281 C 302.863281 212.570312 302.285156 213.152344 301.574219 213.152344 Z M 301.574219 213.152344 " fill-opacity="1" fill-rule="evenodd"/><path fill="#14b8a6" d="M 301.574219 220.445312 L 277.203125 220.445312 C 276.488281 220.445312 275.914062 219.867188 275.914062 219.15625 C 275.914062 218.441406 276.488281 217.867188 277.203125 217.867188 L 301.574219 217.867188 C 302.285156 217.867188 302.863281 218.441406 302.863281 219.15625 C 302.863281 219.867188 302.285156 220.445312 301.574219 220.445312 Z M 301.574219 220.445312 " fill-opacity="1" fill-rule="evenodd"/><path fill="#14b8a6" d="M 301.574219 227.742188 L 277.203125 227.742188 C 276.488281 227.742188 275.914062 227.164062 275.914062 226.453125 C 275.914062 225.738281 276.488281 225.164062 277.203125 225.164062 L 301.574219 225.164062 C 302.285156 225.164062 302.863281 225.738281 302.863281 226.453125 C 302.863281 227.164062 302.285156 227.742188 301.574219 227.742188 Z M 301.574219 227.742188 " fill-opacity="1" fill-rule="evenodd"/></svg>