<svg xmlns="http://www.w3.org/2000/svg" xmlns:xlink="http://www.w3.org/1999/xlink" width="800" zoomAndPan="magnify" viewBox="0 0 600 449.999984" height="600" preserveAspectRatio="xMidYMid meet" version="1.0"><defs><clipPath id="7ed82653df"><path d="M 243.933594 183.789062 L 356.433594 183.789062 L 356.433594 266.289062 L 243.933594 266.289062 Z M 243.933594 183.789062 " clip-rule="nonzero"/></clipPath><clipPath id="5fc5313aab"><path d="M 243.933594 199 L 356.433594 199 L 356.433594 203 L 243.933594 203 Z M 243.933594 199 " clip-rule="nonzero"/></clipPath></defs><g clip-path="url(#7ed82653df)"><path fill="#14b8a6" d="M 348.648438 266.238281 L 251.695312 266.238281 C 247.410156 266.238281 243.921875 262.761719 243.921875 258.484375 L 243.921875 191.589844 C 243.921875 187.3125 247.410156 183.835938 251.695312 183.835938 L 348.648438 183.835938 C 352.933594 183.835938 356.421875 187.3125 356.421875 191.589844 L 356.421875 258.484375 C 356.421875 262.761719 352.933594 266.238281 348.648438 266.238281 Z M 251.695312 186.375 C 248.8125 186.375 246.46875 188.714844 246.46875 191.589844 L 246.46875 258.484375 C 246.46875 261.359375 248.8125 263.699219 251.695312 263.699219 L 348.648438 263.699219 C 351.53125 263.699219 353.875 261.359375 353.875 258.484375 L 353.875 191.589844 C 353.875 188.714844 351.53125 186.375 348.648438 186.375 Z M 251.695312 186.375 " fill-opacity="1" fill-rule="nonzero"/></g><g clip-path="url(#5fc5313aab)"><path fill="#14b8a6" d="M 355.148438 202.496094 L 245.195312 202.496094 C 244.492188 202.496094 243.921875 201.925781 243.921875 201.226562 C 243.921875 200.527344 244.492188 199.957031 245.195312 199.957031 L 355.148438 199.957031 C 355.851562 199.957031 356.421875 200.527344 356.421875 201.226562 C 356.421875 201.925781 355.851562 202.496094 355.148438 202.496094 Z M 355.148438 202.496094 " fill-opacity="1" fill-rule="nonzero"/></g><path fill="#14b8a6" d="M 282.898438 198.101562 C 280.171875 198.101562 277.953125 195.886719 277.953125 193.164062 C 277.953125 190.441406 280.171875 188.226562 282.898438 188.226562 C 285.628906 188.226562 287.847656 190.441406 287.847656 193.164062 C 287.84375 195.886719 285.625 198.101562 282.898438 198.101562 Z M 282.898438 190.769531 C 281.574219 190.769531 280.496094 191.84375 280.496094 193.167969 C 280.496094 194.488281 281.574219 195.5625 282.898438 195.5625 C 284.222656 195.5625 285.300781 194.488281 285.300781 193.167969 C 285.300781 191.84375 284.222656 190.769531 282.898438 190.769531 Z M 282.898438 190.769531 " fill-opacity="1" fill-rule="nonzero"/><path fill="#14b8a6" d="M 300.171875 198.101562 C 297.441406 198.101562 295.222656 195.886719 295.222656 193.164062 C 295.222656 190.441406 297.441406 188.226562 300.171875 188.226562 C 302.898438 188.226562 305.121094 190.441406 305.121094 193.164062 C 305.121094 195.886719 302.898438 198.101562 300.171875 198.101562 Z M 300.171875 190.769531 C 298.847656 190.769531 297.769531 191.84375 297.769531 193.167969 C 297.769531 194.488281 298.84375 195.5625 300.171875 195.5625 C 301.496094 195.5625 302.574219 194.488281 302.574219 193.167969 C 302.574219 191.84375 301.496094 190.769531 300.171875 190.769531 Z M 300.171875 190.769531 " fill-opacity="1" fill-rule="nonzero"/><path fill="#14b8a6" d="M 317.445312 198.101562 C 314.71875 198.101562 312.5 195.886719 312.5 193.164062 C 312.5 190.441406 314.71875 188.226562 317.445312 188.226562 C 320.175781 188.226562 322.394531 190.441406 322.394531 193.164062 C 322.390625 195.886719 320.171875 198.101562 317.445312 198.101562 Z M 317.445312 190.769531 C 316.121094 190.769531 315.042969 191.84375 315.042969 193.167969 C 315.042969 194.488281 316.121094 195.5625 317.445312 195.5625 C 318.773438 195.5625 319.847656 194.488281 319.847656 193.167969 C 319.847656 191.84375 318.769531 190.769531 317.445312 190.769531 Z M 317.445312 190.769531 " fill-opacity="1" fill-rule="nonzero"/><path fill="#14b8a6" d="M 268.597656 194.4375 L 254.109375 194.4375 C 253.40625 194.4375 252.835938 193.867188 252.835938 193.167969 C 252.835938 192.464844 253.40625 191.898438 254.109375 191.898438 L 268.597656 191.898438 C 269.300781 191.898438 269.871094 192.464844 269.871094 193.167969 C 269.871094 193.867188 269.300781 194.4375 268.597656 194.4375 Z M 268.597656 194.4375 " fill-opacity="1" fill-rule="nonzero"/><path fill="#14b8a6" d="M 346.234375 194.4375 L 331.746094 194.4375 C 331.042969 194.4375 330.472656 193.867188 330.472656 193.167969 C 330.472656 192.464844 331.042969 191.898438 331.746094 191.898438 L 346.234375 191.898438 C 346.933594 191.898438 347.503906 192.464844 347.503906 193.167969 C 347.503906 193.867188 346.9375 194.4375 346.234375 194.4375 Z M 346.234375 194.4375 " fill-opacity="1" fill-rule="nonzero"/><path fill="#14b8a6" d="M 299.832031 232.511719 C 298.609375 232.511719 297.464844 232.3125 296.597656 231.898438 L 276.792969 222.425781 C 275.675781 221.894531 275.039062 221.011719 275.039062 220.003906 C 275.039062 219.289062 275.375 217.921875 277.648438 216.839844 L 295.746094 208.183594 C 298.230469 206.996094 301.742188 206.816406 303.746094 207.773438 L 323.550781 217.246094 C 324.664062 217.78125 325.304688 218.664062 325.304688 219.667969 C 325.304688 220.386719 324.96875 221.75 322.695312 222.835938 L 304.597656 231.488281 C 303.1875 232.164062 301.445312 232.511719 299.832031 232.511719 Z M 277.613281 219.960938 C 277.664062 220.003906 277.753906 220.066406 277.894531 220.132812 L 297.699219 229.605469 C 298.867188 230.164062 301.535156 230.132812 303.5 229.195312 L 321.59375 220.542969 C 322.324219 220.191406 322.632812 219.863281 322.730469 219.703125 C 322.679688 219.660156 322.589844 219.597656 322.449219 219.53125 L 302.644531 210.0625 C 301.476562 209.503906 298.804688 209.53125 296.84375 210.46875 L 278.75 219.125 C 278.019531 219.472656 277.710938 219.804688 277.613281 219.960938 Z M 322.785156 219.761719 Z M 322.785156 219.761719 " fill-opacity="1" fill-rule="nonzero"/><path fill="#14b8a6" d="M 299.832031 245.777344 C 298.609375 245.777344 297.464844 245.574219 296.597656 245.160156 L 276.792969 235.691406 C 275.679688 235.15625 275.039062 234.273438 275.039062 233.265625 C 275.039062 232.550781 275.375 231.183594 277.648438 230.101562 L 287.636719 225.324219 C 288.269531 225.023438 289.03125 225.289062 289.332031 225.921875 C 289.636719 226.554688 289.371094 227.3125 288.734375 227.613281 L 278.75 232.390625 C 278.019531 232.742188 277.710938 233.070312 277.613281 233.230469 C 277.664062 233.273438 277.753906 233.335938 277.894531 233.402344 L 297.699219 242.875 C 298.867188 243.433594 301.539062 243.402344 303.5 242.464844 L 321.59375 233.8125 C 322.324219 233.460938 322.632812 233.128906 322.730469 232.972656 C 322.679688 232.929688 322.589844 232.867188 322.449219 232.800781 L 311.605469 227.613281 C 310.972656 227.3125 310.707031 226.554688 311.007812 225.921875 C 311.3125 225.289062 312.074219 225.023438 312.707031 225.324219 L 323.550781 230.507812 C 324.664062 231.042969 325.304688 231.925781 325.304688 232.933594 C 325.304688 233.648438 324.96875 235.015625 322.695312 236.097656 L 304.597656 244.753906 C 303.1875 245.425781 301.445312 245.777344 299.832031 245.777344 Z M 322.785156 233.027344 Z M 322.785156 233.027344 " fill-opacity="1" fill-rule="nonzero"/><path fill="#14b8a6" d="M 299.832031 259.039062 C 298.609375 259.039062 297.464844 258.839844 296.597656 258.425781 L 276.792969 248.953125 C 275.679688 248.417969 275.039062 247.535156 275.039062 246.53125 C 275.039062 245.8125 275.375 244.449219 277.648438 243.363281 L 287.636719 238.585938 C 288.269531 238.285156 289.03125 238.550781 289.332031 239.183594 C 289.636719 239.816406 289.371094 240.574219 288.734375 240.878906 L 278.75 245.652344 C 278.019531 246.003906 277.710938 246.335938 277.613281 246.492188 C 277.664062 246.535156 277.753906 246.597656 277.894531 246.664062 L 297.699219 256.136719 C 298.867188 256.695312 301.535156 256.667969 303.5 255.726562 L 321.59375 247.074219 C 322.324219 246.722656 322.636719 246.394531 322.730469 246.234375 C 322.679688 246.191406 322.589844 246.128906 322.449219 246.0625 L 311.605469 240.878906 C 310.972656 240.574219 310.707031 239.816406 311.007812 239.183594 C 311.3125 238.550781 312.074219 238.285156 312.707031 238.585938 L 323.550781 243.773438 C 324.667969 244.304688 325.304688 245.1875 325.304688 246.195312 C 325.304688 246.910156 324.96875 248.277344 322.695312 249.359375 L 304.597656 258.015625 C 303.1875 258.6875 301.445312 259.039062 299.832031 259.039062 Z M 322.785156 246.289062 Z M 322.785156 246.289062 " fill-opacity="1" fill-rule="nonzero"/></svg>