<svg xmlns="http://www.w3.org/2000/svg" xmlns:xlink="http://www.w3.org/1999/xlink" width="800" zoomAndPan="magnify" viewBox="0 0 600 449.999984" height="600" preserveAspectRatio="xMidYMid meet" version="1.0"><defs><clipPath id="53dc763669"><path d="M 244 182 L 356.375 182 L 356.375 268 L 244 268 Z M 244 182 " clip-rule="nonzero"/></clipPath><clipPath id="da1a343b01"><path d="M 244 253 L 356.375 253 L 356.375 258 L 244 258 Z M 244 253 " clip-rule="nonzero"/></clipPath><clipPath id="7ddf33d8d8"><path d="M 276 276 L 324 276 L 324 281.375 L 276 281.375 Z M 276 276 " clip-rule="nonzero"/></clipPath><clipPath id="787ef3cf66"><path d="M 281 262 L 291 262 L 291 281.375 L 281 281.375 Z M 281 262 " clip-rule="nonzero"/></clipPath><clipPath id="5c84a0052a"><path d="M 309 262 L 319 262 L 319 281.375 L 309 281.375 Z M 309 262 " clip-rule="nonzero"/></clipPath></defs><g clip-path="url(#53dc763669)"><path fill="#14b8a6" d="M 351.546875 262.367188 L 248.707031 262.367188 L 248.707031 187.574219 L 308.683594 187.574219 C 309.976562 187.574219 311.023438 186.527344 311.023438 185.238281 C 311.023438 183.945312 309.976562 182.898438 308.683594 182.898438 L 246.371094 182.898438 C 245.078125 182.898438 244.03125 183.945312 244.03125 185.238281 L 244.03125 264.703125 C 244.03125 265.996094 245.078125 267.042969 246.371094 267.042969 L 353.882812 267.042969 C 355.175781 267.042969 356.222656 265.996094 356.222656 264.703125 L 356.222656 185.238281 C 356.222656 183.945312 355.175781 182.898438 353.882812 182.898438 C 352.59375 182.898438 351.546875 183.945312 351.546875 185.238281 Z M 351.546875 262.367188 " fill-opacity="1" fill-rule="nonzero"/></g><g clip-path="url(#da1a343b01)"><path fill="#14b8a6" d="M 246.371094 257.691406 L 353.882812 257.691406 C 355.175781 257.691406 356.222656 256.644531 356.222656 255.355469 C 356.222656 254.066406 355.175781 253.019531 353.882812 253.019531 L 246.371094 253.019531 C 245.078125 253.019531 244.03125 254.066406 244.03125 255.355469 C 244.03125 256.644531 245.078125 257.691406 246.371094 257.691406 Z M 246.371094 257.691406 " fill-opacity="1" fill-rule="nonzero"/></g><g clip-path="url(#7ddf33d8d8)"><path fill="#14b8a6" d="M 279.089844 281.066406 L 321.160156 281.066406 C 322.453125 281.066406 323.5 280.019531 323.5 278.726562 C 323.5 277.4375 322.453125 276.390625 321.160156 276.390625 L 279.089844 276.390625 C 277.800781 276.390625 276.753906 277.4375 276.753906 278.726562 C 276.753906 280.019531 277.800781 281.066406 279.089844 281.066406 Z M 279.089844 281.066406 " fill-opacity="1" fill-rule="nonzero"/></g><g clip-path="url(#787ef3cf66)"><path fill="#14b8a6" d="M 285.980469 279.46875 L 290.65625 265.445312 C 291.070312 264.21875 290.398438 262.890625 289.183594 262.488281 C 287.953125 262.074219 286.625 262.746094 286.226562 263.960938 L 281.550781 277.984375 C 281.136719 279.214844 281.804688 280.542969 283.023438 280.945312 C 284.253906 281.355469 285.578125 280.6875 285.980469 279.46875 Z M 285.980469 279.46875 " fill-opacity="1" fill-rule="nonzero"/></g><g clip-path="url(#5c84a0052a)"><path fill="#14b8a6" d="M 314.273438 279.46875 L 309.597656 265.445312 C 309.183594 264.21875 309.851562 262.890625 311.070312 262.488281 C 312.300781 262.074219 313.625 262.746094 314.027344 263.960938 L 318.703125 277.984375 C 319.117188 279.214844 318.449219 280.542969 317.230469 280.945312 C 316 281.355469 314.671875 280.6875 314.273438 279.46875 Z M 314.273438 279.46875 " fill-opacity="1" fill-rule="nonzero"/></g><path fill="#14b8a6" d="M 343.976562 189.851562 L 296.144531 231.847656 C 295.695312 232.238281 293.566406 229.230469 291.191406 226.894531 C 288.609375 224.351562 285.8125 222.425781 286.238281 221.941406 L 328.234375 174.109375 C 332.570312 169.230469 339.859375 169.011719 344.460938 173.625 C 349.085938 178.238281 348.855469 185.519531 343.976562 189.851562 Z M 341.164062 176.921875 C 338.449219 174.222656 334.285156 174.34375 331.742188 177.203125 L 291.191406 223.375 L 294.710938 226.894531 L 340.871094 186.359375 C 343.742188 183.800781 343.878906 179.636719 341.164062 176.921875 Z M 341.164062 176.921875 " fill-opacity="1" fill-rule="nonzero"/><path fill="#14b8a6" d="M 266.175781 243.21875 C 264.777344 242.085938 265.128906 239.859375 266.808594 239.214844 C 269.816406 238.070312 271.386719 235.9375 273.503906 231.046875 C 275.402344 226.664062 275.925781 225.640625 277.410156 224.144531 C 281.976562 219.578125 289.378906 219.578125 293.941406 224.144531 C 298.507812 228.707031 298.507812 236.109375 293.941406 240.675781 C 287.796875 246.808594 274.1875 249.644531 266.175781 243.21875 Z M 290.632812 237.363281 C 293.371094 234.625 293.371094 230.191406 290.632812 227.453125 C 287.894531 224.714844 283.460938 224.714844 280.722656 227.453125 C 279.847656 228.332031 279.382812 229.21875 277.800781 232.894531 C 276.085938 236.863281 274.539062 239.503906 272.359375 241.34375 C 278.421875 243.472656 286.773438 241.234375 290.632812 237.363281 Z M 290.632812 237.363281 " fill-opacity="1" fill-rule="nonzero"/><path fill="#14b8a6" d="M 295.964844 215.367188 L 302.707031 222.074219 C 303.621094 222.988281 305.09375 222.988281 306.007812 222.074219 C 306.917969 221.160156 306.917969 219.675781 306.007812 218.761719 L 299.261719 212.054688 C 298.347656 211.140625 296.863281 211.15625 295.953125 212.066406 C 295.039062 212.980469 295.050781 214.453125 295.964844 215.367188 Z M 295.964844 215.367188 " fill-opacity="1" fill-rule="nonzero"/></svg>